<?xml version="1.0" encoding="UTF-8"?>
<svg width="700pt" height="700pt" version="1.1" viewBox="0 0 700 700" xmlns="http://www.w3.org/2000/svg" xmlns:xlink="http://www.w3.org/1999/xlink">
 <defs>
  <symbol id="v" overflow="visible">
   <path d="m0.92188-0.0625c-0.054687 0.03125-0.10547 0.054688-0.15625 0.0625-0.042969 0.0078125-0.09375 0.015625-0.15625 0.015625-0.16797 0-0.30469-0.046875-0.40625-0.14062-0.09375-0.09375-0.14062-0.21875-0.14062-0.375s0.046875-0.28125 0.14062-0.375c0.10156-0.09375 0.23828-0.14062 0.40625-0.14062 0.0625 0 0.11328 0.007813 0.15625 0.015625 0.050781 0.011719 0.10156 0.027344 0.15625 0.046875v0.21875c-0.054687-0.03125-0.10547-0.050781-0.15625-0.0625-0.042969-0.019531-0.089844-0.03125-0.14062-0.03125-0.085938 0-0.15625 0.03125-0.21875 0.09375-0.054688 0.054687-0.078125 0.13281-0.078125 0.23438 0 0.10547 0.023437 0.1875 0.078125 0.25 0.0625 0.054688 0.13281 0.078125 0.21875 0.078125 0.050781 0 0.097656-0.003906 0.14062-0.015625 0.050781-0.019531 0.10156-0.046875 0.15625-0.078125z"/>
  </symbol>
  <symbol id="c" overflow="visible">
   <path d="m0.67188-0.54688c-0.023437-0.007813-0.042969-0.015625-0.0625-0.015625-0.023437-0.007812-0.042969-0.015625-0.0625-0.015625-0.0625 0-0.10938 0.023437-0.14062 0.0625-0.03125 0.042969-0.046875 0.10156-0.046875 0.17188v0.34375h-0.25v-0.75h0.25v0.125c0.03125-0.050781 0.0625-0.085938 0.09375-0.10938 0.039063-0.019531 0.09375-0.03125 0.15625-0.03125h0.015625 0.046875z"/>
  </symbol>
  <symbol id="a" overflow="visible">
   <path d="m0.85938-0.375v0.0625h-0.5625c0.007813 0.0625 0.03125 0.10938 0.0625 0.14062 0.039063 0.023437 0.09375 0.03125 0.15625 0.03125 0.050781 0 0.10156-0.003906 0.15625-0.015625 0.050781-0.019531 0.10156-0.046875 0.15625-0.078125v0.1875c-0.054687 0.023438-0.10938 0.039062-0.17188 0.046875-0.054688 0.0078125-0.10938 0.015625-0.17188 0.015625-0.13672 0-0.24219-0.03125-0.3125-0.09375-0.074219-0.070313-0.10938-0.17188-0.10938-0.29688s0.035156-0.21875 0.10938-0.28125c0.070313-0.070312 0.17188-0.10938 0.29688-0.10938s0.21875 0.039063 0.28125 0.10938c0.070312 0.0625 0.10938 0.15625 0.10938 0.28125zm-0.23438-0.078125c0-0.050781-0.015625-0.085937-0.046875-0.10938-0.023437-0.03125-0.058594-0.046875-0.10938-0.046875-0.042969 0-0.078125 0.015625-0.10938 0.046875-0.03125 0.023438-0.046875 0.058594-0.046875 0.10938z"/>
  </symbol>
  <symbol id="j" overflow="visible">
   <path d="m0.45312-0.34375c-0.054687 0-0.09375 0.011719-0.125 0.03125-0.023437 0.023438-0.03125 0.046875-0.03125 0.078125s0.007813 0.058594 0.03125 0.078125c0.019531 0.011719 0.050781 0.015625 0.09375 0.015625 0.039063 0 0.078125-0.015625 0.10938-0.046875s0.046875-0.070312 0.046875-0.125v-0.03125zm0.35938-0.078125v0.42188h-0.23438v-0.10938c-0.03125 0.042969-0.070313 0.074219-0.10938 0.09375-0.042969 0.019531-0.089844 0.03125-0.14062 0.03125-0.085937 0-0.15234-0.019531-0.20312-0.0625-0.042969-0.039062-0.0625-0.097656-0.0625-0.17188 0-0.09375 0.023438-0.16016 0.078125-0.20312 0.0625-0.039063 0.16016-0.0625 0.29688-0.0625h0.14062v-0.015625c0-0.039062-0.015625-0.066406-0.046875-0.078125-0.03125-0.019531-0.078125-0.03125-0.14062-0.03125-0.054687 0-0.10156 0.007813-0.14062 0.015625-0.042969 0.011719-0.085938 0.027344-0.125 0.046875v-0.1875c0.050781-0.007813 0.10156-0.015625 0.15625-0.015625 0.050781-0.007812 0.10156-0.015625 0.15625-0.015625 0.13281 0 0.22656 0.027344 0.28125 0.078125 0.0625 0.054688 0.09375 0.14062 0.09375 0.26562z"/>
  </symbol>
  <symbol id="b" overflow="visible">
   <path d="m0.375-0.96875v0.21875h0.25v0.17188h-0.25v0.3125c0 0.042969 0.003906 0.070313 0.015625 0.078125 0.019531 0.011719 0.050781 0.015625 0.09375 0.015625h0.125v0.17188h-0.20312c-0.10547 0-0.17969-0.019531-0.21875-0.0625-0.03125-0.039062-0.046875-0.10938-0.046875-0.20312v-0.3125h-0.125v-0.17188h0.125v-0.21875z"/>
  </symbol>
  <symbol id="i" overflow="visible">
   <path d="m0.625-0.64062v-0.40625h0.25v1.0469h-0.25v-0.10938c-0.03125 0.042969-0.070312 0.074219-0.10938 0.09375-0.042969 0.019531-0.089844 0.03125-0.14062 0.03125-0.09375 0-0.17188-0.035156-0.23438-0.10938-0.054688-0.070312-0.078125-0.16406-0.078125-0.28125 0-0.11328 0.023438-0.20703 0.078125-0.28125 0.0625-0.070312 0.14062-0.10938 0.23438-0.10938 0.050781 0 0.097656 0.011719 0.14062 0.03125 0.039063 0.023437 0.078125 0.054687 0.10938 0.09375zm-0.15625 0.48438c0.050781 0 0.085938-0.015625 0.10938-0.046875 0.03125-0.039063 0.046875-0.097656 0.046875-0.17188 0-0.070312-0.015625-0.125-0.046875-0.15625-0.023437-0.039062-0.058594-0.0625-0.10938-0.0625-0.054688 0-0.09375 0.023438-0.125 0.0625-0.023438 0.03125-0.03125 0.085938-0.03125 0.15625 0 0.074219 0.007812 0.13281 0.03125 0.17188 0.03125 0.03125 0.070312 0.046875 0.125 0.046875z"/>
  </symbol>
  <symbol id="h" overflow="visible">
   <path d="m0.51562-0.15625c0.050781 0 0.085937-0.015625 0.10938-0.046875 0.03125-0.039063 0.046875-0.097656 0.046875-0.17188 0-0.070312-0.015625-0.125-0.046875-0.15625-0.023438-0.039062-0.058594-0.0625-0.10938-0.0625-0.054687 0-0.09375 0.023438-0.125 0.0625-0.023437 0.03125-0.03125 0.085938-0.03125 0.15625 0 0.074219 0.007813 0.13281 0.03125 0.17188 0.03125 0.03125 0.070313 0.046875 0.125 0.046875zm-0.15625-0.48438c0.03125-0.039063 0.066406-0.070313 0.10938-0.09375 0.039062-0.019531 0.085938-0.03125 0.14062-0.03125 0.09375 0 0.16406 0.039063 0.21875 0.10938 0.0625 0.074219 0.09375 0.16797 0.09375 0.28125 0 0.11719-0.03125 0.21094-0.09375 0.28125-0.054687 0.074219-0.125 0.10938-0.21875 0.10938-0.054687 0-0.10156-0.011719-0.14062-0.03125-0.042969-0.019531-0.078125-0.050781-0.10938-0.09375v0.10938h-0.25v-1.0469h0.25z"/>
  </symbol>
  <symbol id="g" overflow="visible">
   <path d="m0.015625-0.75h0.23438l0.20312 0.51562 0.17188-0.51562h0.25l-0.3125 0.82812c-0.042969 0.082031-0.085938 0.14062-0.125 0.17188-0.042969 0.03125-0.09375 0.046875-0.15625 0.046875h-0.14062v-0.15625h0.078125c0.039062 0 0.066406-0.011719 0.078125-0.03125 0.019531-0.011719 0.035156-0.03125 0.046875-0.0625l0.015625-0.015625z"/>
  </symbol>
  <symbol id="e" overflow="visible">
   <path d="m0.125-1h0.26562v1h-0.26562z"/>
  </symbol>
  <symbol id="u" overflow="visible">
   <path d="m-0.015625-1h0.28125l0.23438 0.35938 0.21875-0.35938h0.29688l-0.39062 0.57812v0.42188h-0.25v-0.42188z"/>
  </symbol>
  <symbol id="t" overflow="visible">
   <path d="m0.125-1h0.26562v0.35938l0.35938-0.35938h0.3125l-0.48438 0.46875 0.53125 0.53125h-0.32812l-0.39062-0.39062v0.39062h-0.26562z"/>
  </symbol>
  <symbol id="s" overflow="visible">
   <path d="m0.57812-0.82812c-0.074219 0-0.13672 0.03125-0.1875 0.09375-0.042969 0.054687-0.0625 0.13281-0.0625 0.23438 0 0.10547 0.019531 0.1875 0.0625 0.25 0.050781 0.054688 0.11328 0.078125 0.1875 0.078125 0.082031 0 0.14453-0.023437 0.1875-0.078125 0.039063-0.0625 0.0625-0.14453 0.0625-0.25 0-0.10156-0.023437-0.17969-0.0625-0.23438-0.042969-0.0625-0.10547-0.09375-0.1875-0.09375zm0-0.1875c0.16406 0 0.28906 0.046875 0.375 0.14062 0.09375 0.085938 0.14062 0.21094 0.14062 0.375 0 0.16797-0.046875 0.29688-0.14062 0.39062-0.085937 0.085938-0.21094 0.125-0.375 0.125-0.15625 0-0.28125-0.039062-0.375-0.125-0.09375-0.09375-0.14062-0.22266-0.14062-0.39062 0-0.16406 0.046875-0.28906 0.14062-0.375 0.09375-0.09375 0.21875-0.14062 0.375-0.14062z"/>
  </symbol>
  <symbol id="f" overflow="visible">
   <path d="m0.125-1h0.29688l0.35938 0.6875v-0.6875h0.25v1h-0.29688l-0.35938-0.6875v0.6875h-0.25z"/>
  </symbol>
  <symbol id="r" overflow="visible">
   <path d="m0.60938-1.0469v0.15625h-0.125c-0.042969 0-0.070313 0.011719-0.078125 0.03125-0.011719 0.011719-0.015625 0.03125-0.015625 0.0625v0.046875h0.20312v0.17188h-0.20312v0.57812h-0.25v-0.57812h-0.10938v-0.17188h0.10938v-0.046875c0-0.082031 0.019531-0.14453 0.0625-0.1875 0.050781-0.039063 0.125-0.0625 0.21875-0.0625z"/>
  </symbol>
  <symbol id="d" overflow="visible">
   <path d="m0.46875-0.59375c-0.054688 0-0.09375 0.023438-0.125 0.0625-0.023438 0.03125-0.03125 0.085938-0.03125 0.15625 0 0.074219 0.007812 0.13281 0.03125 0.17188 0.03125 0.03125 0.070312 0.046875 0.125 0.046875 0.050781 0 0.09375-0.015625 0.125-0.046875 0.03125-0.039063 0.046875-0.097656 0.046875-0.17188 0-0.070312-0.015625-0.125-0.046875-0.15625-0.03125-0.039062-0.074219-0.0625-0.125-0.0625zm0-0.17188c0.13281 0 0.23828 0.039063 0.3125 0.10938 0.070312 0.0625 0.10938 0.15625 0.10938 0.28125s-0.039063 0.22656-0.10938 0.29688c-0.074219 0.0625-0.17969 0.09375-0.3125 0.09375-0.125 0-0.22656-0.03125-0.29688-0.09375-0.074219-0.070313-0.10938-0.17188-0.10938-0.29688s0.035156-0.21875 0.10938-0.28125c0.070313-0.070312 0.17188-0.10938 0.29688-0.10938z"/>
  </symbol>
  <symbol id="q" overflow="visible">
   <path d="m0.8125-0.625c0.03125-0.050781 0.066406-0.085938 0.10938-0.10938 0.039063-0.019531 0.085937-0.03125 0.14062-0.03125 0.082031 0 0.14453 0.027344 0.1875 0.078125 0.050781 0.054688 0.078125 0.13281 0.078125 0.23438v0.45312h-0.25v-0.39062-0.015625-0.03125c0-0.050781-0.011719-0.085938-0.03125-0.10938-0.011719-0.03125-0.03125-0.046875-0.0625-0.046875-0.042969 0-0.078125 0.023438-0.10938 0.0625-0.023438 0.042969-0.03125 0.09375-0.03125 0.15625v0.375h-0.25v-0.39062c0-0.082031-0.007812-0.13281-0.015625-0.15625-0.011719-0.03125-0.039063-0.046875-0.078125-0.046875-0.042969 0-0.078125 0.023438-0.10938 0.0625-0.023437 0.042969-0.03125 0.09375-0.03125 0.15625v0.375h-0.25v-0.75h0.25v0.10938c0.03125-0.039063 0.0625-0.070313 0.09375-0.09375 0.039063-0.019531 0.082031-0.03125 0.125-0.03125 0.050781 0 0.097656 0.015625 0.14062 0.046875 0.039062 0.023438 0.070312 0.054688 0.09375 0.09375z"/>
  </symbol>
  <symbol id="p" overflow="visible">
   <path d="m0.875-0.45312v0.45312h-0.25v-0.34375-0.14062c0-0.019531-0.007812-0.039063-0.015625-0.0625-0.011719-0.007813-0.027344-0.019531-0.046875-0.03125-0.011719-0.007813-0.027344-0.015625-0.046875-0.015625-0.054687 0-0.09375 0.023438-0.125 0.0625-0.023437 0.042969-0.03125 0.09375-0.03125 0.15625v0.375h-0.25v-1.0469h0.25v0.40625c0.03125-0.039063 0.066406-0.070313 0.10938-0.09375 0.039062-0.019531 0.085938-0.03125 0.14062-0.03125 0.082031 0 0.14453 0.027344 0.1875 0.078125 0.050781 0.054688 0.078125 0.13281 0.078125 0.23438z"/>
  </symbol>
  <symbol id="o" overflow="visible">
   <path d="m0.10938-0.29688v-0.45312h0.23438v0.078125 0.15625 0.10938 0.14062c0.007812 0.023437 0.019531 0.039063 0.03125 0.046875 0.007812 0.023438 0.019531 0.039062 0.03125 0.046875 0.019531 0.011719 0.039062 0.015625 0.0625 0.015625 0.039062 0 0.078125-0.019531 0.10938-0.0625 0.03125-0.039062 0.046875-0.09375 0.046875-0.15625v-0.375h0.23438v0.75h-0.23438v-0.10938c-0.042969 0.042969-0.085938 0.074219-0.125 0.09375-0.03125 0.019531-0.074219 0.03125-0.125 0.03125-0.085938 0-0.15234-0.023438-0.20312-0.078125-0.042969-0.050781-0.0625-0.12891-0.0625-0.23438z"/>
  </symbol>
  <symbol id="n" overflow="visible">
   <path d="m0.875-0.45312v0.45312h-0.25v-0.34375-0.14062c0-0.019531-0.007812-0.039063-0.015625-0.0625-0.011719-0.007813-0.027344-0.019531-0.046875-0.03125-0.011719-0.007813-0.027344-0.015625-0.046875-0.015625-0.054687 0-0.09375 0.023438-0.125 0.0625-0.023437 0.042969-0.03125 0.09375-0.03125 0.15625v0.375h-0.25v-0.75h0.25v0.10938c0.03125-0.039063 0.066406-0.070313 0.10938-0.09375 0.039062-0.019531 0.085938-0.03125 0.14062-0.03125 0.082031 0 0.14453 0.027344 0.1875 0.078125 0.050781 0.054688 0.078125 0.13281 0.078125 0.23438z"/>
  </symbol>
  <symbol id="m" overflow="visible">
   <path d="m0.125-1h0.4375c0.125 0 0.21875 0.03125 0.28125 0.09375 0.070312 0.054688 0.10938 0.13281 0.10938 0.23438 0 0.10547-0.039063 0.1875-0.10938 0.25-0.0625 0.054687-0.15625 0.078125-0.28125 0.078125h-0.17188v0.34375h-0.26562zm0.26562 0.1875v0.28125h0.14062c0.050781 0 0.085938-0.007812 0.10938-0.03125 0.03125-0.03125 0.046875-0.066406 0.046875-0.10938 0-0.050781-0.015625-0.085937-0.046875-0.10938-0.023437-0.019531-0.058594-0.03125-0.10938-0.03125z"/>
  </symbol>
  <symbol id="l" overflow="visible">
   <path d="m0.10938-0.75h0.25v0.73438c0 0.10156-0.027344 0.17969-0.078125 0.23438-0.054688 0.050781-0.12109 0.078125-0.20312 0.078125h-0.125v-0.15625h0.046875c0.039062 0 0.066406-0.011719 0.078125-0.03125 0.019531-0.023438 0.03125-0.0625 0.03125-0.125zm0-0.29688h0.25v0.20312h-0.25z"/>
  </symbol>
  <symbol id="k" overflow="visible">
   <path d="m0.71875-0.73438v0.20312c-0.03125-0.019531-0.0625-0.035156-0.09375-0.046875-0.03125-0.007813-0.070312-0.015625-0.10938-0.015625-0.0625 0-0.11719 0.023438-0.15625 0.0625-0.03125 0.03125-0.046875 0.085938-0.046875 0.15625 0 0.074219 0.015625 0.13281 0.046875 0.17188 0.039063 0.03125 0.09375 0.046875 0.15625 0.046875 0.039063 0 0.078125-0.003906 0.10938-0.015625 0.039062-0.007813 0.070312-0.023437 0.09375-0.046875v0.20312c-0.03125 0.011719-0.070312 0.015625-0.10938 0.015625-0.042969 0.0078125-0.085937 0.015625-0.125 0.015625-0.13672 0-0.24219-0.03125-0.3125-0.09375-0.074219-0.070313-0.10938-0.17188-0.10938-0.29688s0.035156-0.21875 0.10938-0.28125c0.070313-0.070312 0.17578-0.10938 0.3125-0.10938 0.039063 0 0.082031 0.007813 0.125 0.015625 0.039063 0 0.078125 0.007812 0.10938 0.015625z"/>
  </symbol>
 </defs>
 <g>
  <path d="m197.91 248.45 129.86-124.85c2.5508-2.457 6.582-2.4258 9.1016 0.027343l0.042969 0.042969 83.73 81.332c2.5898 2.5195 2.6484 6.6641 0.12891 9.2539-1.1875 1.2188-2.7305 1.8789-4.3086 1.9688v0.003906c-32.316 1.9297-61.27 16.344-82.109 38.48-20.703 21.996-33.391 51.637-33.391 84.254 0 19.586 4.5625 38.082 12.684 54.48 8.4414 17.047 20.727 31.863 35.727 43.312 2.875 2.1953 3.4258 6.3047 1.2305 9.1758-1.2891 1.6875-3.2344 2.5742-5.2031 2.5742v0.015625h-146.02c-3.625 0-6.5625-2.9375-6.5625-6.5625v-185.84c0-2.0312 0.92188-3.8438 2.3711-5.0508l2.7305-2.6289zm134.37-111.03-125.29 120.46-1.0508 1.0117v176.51h122.01c-10.539-10.488-19.371-22.691-26.039-36.164-9.0039-18.188-14.066-38.652-14.066-60.273 0-36.066 14.051-68.867 36.98-93.227 19.984-21.23 46.715-36.035 76.77-41l-69.305-67.32z"/>
  <path d="m151.07 272.63c-2.6172 2.4922-6.7617 2.3867-9.2539-0.23047-2.4922-2.6172-2.3867-6.7617 0.23047-9.2539l185.76-176.4c2.5391-2.418 6.5117-2.3906 9.0234 0l130.47 123.9c2.6172 2.4922 2.7227 6.6367 0.23047 9.2539-2.4922 2.6172-6.6367 2.7227-9.2539 0.23047l-125.96-119.61-181.25 172.11z"/>
  <path d="m423.91 202.89c37.578 0 71.598 15.23 96.223 39.855s39.859 58.645 39.859 96.223-15.23 71.598-39.859 96.223c-24.625 24.625-58.645 39.859-96.223 39.859-37.574 0-71.598-15.23-96.223-39.859-24.625-24.625-39.859-58.645-39.859-96.223s15.23-71.598 39.855-96.223 58.645-39.855 96.223-39.855zm86.941 49.137c-22.25-22.25-52.988-36.012-86.941-36.012s-64.691 13.762-86.941 36.012-36.012 52.988-36.012 86.941 13.762 64.691 36.012 86.941 52.988 36.012 86.941 36.012 64.691-13.762 86.941-36.012 36.012-52.988 36.012-86.941-13.762-64.691-36.012-86.941z"/>
  <path d="m422.75 429.67v-18.043c-8.9883-1.1289-16.301-3.1445-21.941-6.0508s-10.492-7.6211-14.594-14.078c-4.1016-6.4922-6.457-14.387-7.1406-23.75l18.043-3.4844c1.4023 9.7383 3.8633 16.883 7.4141 21.426 5.0586 6.4258 11.141 10.012 18.215 10.766v-56.629c-7.418-1.9141-14.969-5.0586-22.691-9.3984-5.7422-3.1797-10.148-7.6211-13.258-13.293-3.1094-5.707-4.6484-12.133-4.6484-19.344 0-12.816 4.5469-23.203 13.602-31.168 6.0508-5.332 15.07-8.6133 26.996-9.8086v-8.6133h10.664v8.6133c10.422 0.99219 18.691 4.1016 24.812 9.2617 7.8242 6.5625 12.543 15.582 14.148 27.031l-18.453 2.8711c-1.0586-7.1406-3.2812-12.645-6.6641-16.438-3.3477-3.8281-7.9609-6.3203-13.84-7.5508v51.945c9.0547 2.3242 15.035 4.1367 17.977 5.3984 5.6055 2.4609 10.148 5.4688 13.668 9.0234 3.5547 3.5195 6.2539 7.7227 8.168 12.609 1.8789 4.8516 2.8359 10.148 2.8359 15.824 0 12.473-3.9648 22.863-11.895 31.234-7.9297 8.3398-18.18 12.781-30.758 13.398v18.25h-10.664zm0-157.89c-6.9727 1.0586-12.508 3.8633-16.508 8.4414-4.0312 4.5469-6.0508 9.9102-6.0508 16.129 0 6.1523 1.707 11.312 5.125 15.445 3.418 4.1367 9.2266 7.2773 17.43 9.3984v-49.418zm10.664 124.67c7.0039-0.85547 12.781-3.8945 17.359-9.125 4.5469-5.1953 6.8359-11.652 6.8359-19.309 0-6.5625-1.6055-11.789-4.8516-15.789-3.2461-3.9648-9.707-7.1758-19.344-9.6719z" fill-rule="evenodd"/>
  <use x="70" y="564.101562" xlink:href="#v"/>
  <use x="71.003906" y="564.101562" xlink:href="#c"/>
  <use x="71.675781" y="564.101562" xlink:href="#a"/>
  <use x="72.605469" y="564.101562" xlink:href="#j"/>
  <use x="73.527344" y="564.101562" xlink:href="#b"/>
  <use x="74.179688" y="564.101562" xlink:href="#a"/>
  <use x="75.109375" y="564.101562" xlink:href="#i"/>
  <use x="76.5625" y="564.101562" xlink:href="#h"/>
  <use x="77.542969" y="564.101562" xlink:href="#g"/>
  <use x="78.910156" y="564.101562" xlink:href="#e"/>
  <use x="79.417969" y="564.101562" xlink:href="#u"/>
  <use x="80.40625" y="564.101562" xlink:href="#e"/>
  <use x="80.917969" y="564.101562" xlink:href="#t"/>
  <use x="81.976562" y="564.101562" xlink:href="#s"/>
  <use x="83.136719" y="564.101562" xlink:href="#f"/>
  <use x="70" y="565.46875" xlink:href="#r"/>
  <use x="70.59375" y="565.46875" xlink:href="#c"/>
  <use x="71.269531" y="565.46875" xlink:href="#d"/>
  <use x="72.207031" y="565.46875" xlink:href="#q"/>
  <use x="74.109375" y="565.46875" xlink:href="#b"/>
  <use x="74.761719" y="565.46875" xlink:href="#p"/>
  <use x="75.734375" y="565.46875" xlink:href="#a"/>
  <use x="77.140625" y="565.46875" xlink:href="#f"/>
  <use x="78.285156" y="565.46875" xlink:href="#d"/>
  <use x="79.222656" y="565.46875" xlink:href="#o"/>
  <use x="80.195312" y="565.46875" xlink:href="#n"/>
  <use x="81.644531" y="565.46875" xlink:href="#m"/>
  <use x="82.648438" y="565.46875" xlink:href="#c"/>
  <use x="83.320312" y="565.46875" xlink:href="#d"/>
  <use x="84.261719" y="565.46875" xlink:href="#l"/>
  <use x="84.730469" y="565.46875" xlink:href="#a"/>
  <use x="85.65625" y="565.46875" xlink:href="#k"/>
  <use x="86.46875" y="565.46875" xlink:href="#b"/>
 </g>
</svg>
