<?xml version="1.0" encoding="UTF-8"?>
<svg width="700pt" height="700pt" version="1.1" viewBox="0 0 700 700" xmlns="http://www.w3.org/2000/svg" xmlns:xlink="http://www.w3.org/1999/xlink">
 <defs>
  <symbol id="x" overflow="visible">
   <path d="m9.375-0.5625c-0.48047 0.25-0.98438 0.4375-1.5156 0.5625-0.52344 0.13281-1.0625 0.20312-1.625 0.20312-1.7109 0-3.0586-0.47266-4.0469-1.4219-0.99219-0.95703-1.4844-2.25-1.4844-3.875 0-1.6328 0.49219-2.9258 1.4844-3.875 0.98828-0.94531 2.3359-1.4219 4.0469-1.4219 0.5625 0 1.1016 0.0625 1.625 0.1875 0.53125 0.125 1.0352 0.32031 1.5156 0.57812v2.1094c-0.49219-0.33203-0.97656-0.57812-1.4531-0.73438-0.46875-0.15625-0.96484-0.23438-1.4844-0.23438-0.9375 0-1.6797 0.30469-2.2188 0.90625-0.53125 0.60547-0.79688 1.4336-0.79688 2.4844 0 1.0547 0.26562 1.8828 0.79688 2.4844 0.53906 0.60547 1.2812 0.90625 2.2188 0.90625 0.51953 0 1.0156-0.078125 1.4844-0.23438 0.47656-0.15625 0.96094-0.39844 1.4531-0.73438z"/>
  </symbol>
  <symbol id="d" overflow="visible">
   <path d="m6.8594-5.5781c-0.21094-0.09375-0.42188-0.16016-0.64062-0.20312-0.21094-0.050781-0.42188-0.078125-0.64062-0.078125-0.625 0-1.1094 0.20312-1.4531 0.60938-0.33594 0.39844-0.5 0.96875-0.5 1.7188v3.5312h-2.4531v-7.6562h2.4531v1.25c0.3125-0.5 0.67188-0.86328 1.0781-1.0938 0.40625-0.22656 0.89453-0.34375 1.4688-0.34375 0.082031 0 0.17188 0.007812 0.26562 0.015625 0.09375 0 0.23438 0.015625 0.42188 0.046875z"/>
  </symbol>
  <symbol id="a" overflow="visible">
   <path d="m8.8125-3.8438v0.6875h-5.7188c0.0625 0.57422 0.26953 1.0078 0.625 1.2969 0.35156 0.29297 0.84766 0.4375 1.4844 0.4375 0.51953 0 1.0508-0.078125 1.5938-0.23438 0.53906-0.15625 1.0938-0.39062 1.6562-0.70312v1.8906c-0.57422 0.21875-1.1523 0.38672-1.7344 0.5-0.57422 0.11328-1.1523 0.17188-1.7344 0.17188-1.3867 0-2.4648-0.35156-3.2344-1.0625-0.76172-0.70703-1.1406-1.6953-1.1406-2.9688 0-1.2383 0.375-2.2188 1.125-2.9375s1.7852-1.0781 3.1094-1.0781c1.207 0 2.1719 0.36719 2.8906 1.0938 0.71875 0.71875 1.0781 1.6875 1.0781 2.9062zm-2.5156-0.8125c0-0.46875-0.13672-0.84375-0.40625-1.125-0.27344-0.28906-0.625-0.4375-1.0625-0.4375-0.46875 0-0.85547 0.13672-1.1562 0.40625-0.29297 0.26172-0.47656 0.64844-0.54688 1.1562z"/>
  </symbol>
  <symbol id="c" overflow="visible">
   <path d="m4.6094-3.4531c-0.51172 0-0.89844 0.089844-1.1562 0.26562-0.26172 0.17969-0.39062 0.43359-0.39062 0.76562 0 0.3125 0.10156 0.55859 0.3125 0.73438 0.20703 0.17969 0.5 0.26562 0.875 0.26562 0.45703 0 0.84375-0.16406 1.1562-0.5 0.3125-0.33203 0.46875-0.75 0.46875-1.25v-0.28125zm3.7344-0.92188v4.375h-2.4688v-1.1406c-0.32422 0.46875-0.69531 0.8125-1.1094 1.0312-0.40625 0.20703-0.90234 0.3125-1.4844 0.3125-0.80469 0-1.4492-0.22656-1.9375-0.6875-0.49219-0.46875-0.73438-1.0703-0.73438-1.8125 0-0.89453 0.30469-1.5508 0.92188-1.9688 0.61328-0.42578 1.582-0.64062 2.9062-0.64062h1.4375v-0.1875c0-0.38281-0.15234-0.66406-0.45312-0.84375-0.30469-0.1875-0.77734-0.28125-1.4219-0.28125-0.53125 0-1.0234 0.054688-1.4688 0.15625-0.44922 0.10547-0.87109 0.26562-1.2656 0.48438v-1.875c0.53125-0.125 1.0547-0.21875 1.5781-0.28125 0.53125-0.070313 1.0625-0.10938 1.5938-0.10938 1.3828 0 2.3789 0.27734 2.9844 0.82812 0.61328 0.54297 0.92188 1.4219 0.92188 2.6406z"/>
  </symbol>
  <symbol id="b" overflow="visible">
   <path d="m3.8438-9.8281v2.1719h2.5312v1.75h-2.5312v3.25c0 0.35547 0.066406 0.59375 0.20312 0.71875 0.14453 0.125 0.42969 0.1875 0.85938 0.1875h1.25v1.75h-2.0938c-0.96875 0-1.6562-0.19531-2.0625-0.59375-0.39844-0.40625-0.59375-1.0938-0.59375-2.0625v-3.25h-1.2188v-1.75h1.2188v-2.1719z"/>
  </symbol>
  <symbol id="m" overflow="visible">
   <path d="m6.3906-6.5312v-4.1094h2.4531v10.641h-2.4531v-1.1094c-0.34375 0.44922-0.71875 0.78125-1.125 1-0.40625 0.20703-0.875 0.3125-1.4062 0.3125-0.9375 0-1.7148-0.375-2.3281-1.125-0.60547-0.75-0.90625-1.7188-0.90625-2.9062 0-1.1758 0.30078-2.1406 0.90625-2.8906 0.61328-0.75 1.3906-1.125 2.3281-1.125 0.53125 0 1 0.10938 1.4062 0.32812 0.40625 0.21094 0.78125 0.53906 1.125 0.98438zm-1.625 4.9531c0.53125 0 0.92969-0.19141 1.2031-0.57812 0.28125-0.38281 0.42188-0.94141 0.42188-1.6719 0-0.72656-0.14062-1.2812-0.42188-1.6562-0.27344-0.38281-0.67188-0.57812-1.2031-0.57812-0.51172 0-0.90625 0.19531-1.1875 0.57812-0.27344 0.375-0.40625 0.92969-0.40625 1.6562 0 0.73047 0.13281 1.2891 0.40625 1.6719 0.28125 0.38672 0.67578 0.57812 1.1875 0.57812z"/>
  </symbol>
  <symbol id="l" overflow="visible">
   <path d="m5.25-1.5781c0.51953 0 0.91406-0.19141 1.1875-0.57812 0.28125-0.38281 0.42188-0.94141 0.42188-1.6719 0-0.72656-0.14062-1.2812-0.42188-1.6562-0.27344-0.38281-0.66797-0.57812-1.1875-0.57812-0.52344 0-0.92188 0.19531-1.2031 0.57812-0.28125 0.38672-0.42188 0.9375-0.42188 1.6562 0 0.73047 0.14062 1.2891 0.42188 1.6719 0.28125 0.38672 0.67969 0.57812 1.2031 0.57812zm-1.625-4.9531c0.33203-0.44531 0.70312-0.77344 1.1094-0.98438 0.41406-0.21875 0.89062-0.32812 1.4219-0.32812 0.94531 0 1.7227 0.375 2.3281 1.125 0.60156 0.75 0.90625 1.7148 0.90625 2.8906 0 1.1875-0.30469 2.1562-0.90625 2.9062-0.60547 0.75-1.3828 1.125-2.3281 1.125-0.53125 0-1.0078-0.10547-1.4219-0.3125-0.40625-0.21875-0.77734-0.55078-1.1094-1v1.1094h-2.4531v-10.641h2.4531z"/>
  </symbol>
  <symbol id="k" overflow="visible">
   <path d="m0.17188-7.6562h2.4531l2.0469 5.1875 1.75-5.1875h2.4531l-3.2188 8.375c-0.32422 0.85156-0.70312 1.4453-1.1406 1.7812-0.42969 0.34375-0.99609 0.51562-1.7031 0.51562h-1.4062v-1.5938h0.76562c0.41406 0 0.71875-0.070313 0.90625-0.20312 0.1875-0.13672 0.33203-0.375 0.4375-0.71875l0.0625-0.20312z"/>
  </symbol>
  <symbol id="j" overflow="visible">
   <path d="m1.2812-10.203h3.3594l2.3125 5.4531 2.3438-5.4531h3.3438v10.203h-2.4844v-7.4688l-2.3594 5.5h-1.6719l-2.3438-5.5v7.4688h-2.5z"/>
  </symbol>
  <symbol id="w" overflow="visible">
   <path d="m3.1094-3.9219-2.7656-3.7344h2.5938l1.5625 2.2656 1.5938-2.2656h2.5938l-2.7656 3.7188 2.8906 3.9375h-2.5781l-1.7344-2.4219-1.7031 2.4219h-2.5781z"/>
  </symbol>
  <symbol id="f" overflow="visible">
   <path d="m1.1719-7.6562h2.4531v7.6562h-2.4531zm0-2.9844h2.4531v2h-2.4531z"/>
  </symbol>
  <symbol id="i" overflow="visible">
   <path d="m8.2656-6.3906c0.3125-0.46875 0.67969-0.82812 1.1094-1.0781 0.42578-0.25 0.89453-0.375 1.4062-0.375 0.875 0 1.5391 0.27344 2 0.8125 0.46875 0.54297 0.70312 1.3359 0.70312 2.375v4.6562h-2.4688v-4c0.007813-0.050781 0.015625-0.10938 0.015625-0.17188v-0.28125c0-0.53906-0.078125-0.92969-0.23438-1.1719-0.15625-0.25-0.41797-0.375-0.78125-0.375-0.46094 0-0.82031 0.19531-1.0781 0.57812-0.25 0.38672-0.38281 0.9375-0.39062 1.6562v3.7656h-2.4531v-4c0-0.84375-0.074219-1.3828-0.21875-1.625-0.14844-0.25-0.40625-0.375-0.78125-0.375-0.46875 0-0.83594 0.19531-1.0938 0.57812-0.25 0.38672-0.375 0.9375-0.375 1.6562v3.7656h-2.4688v-7.6562h2.4688v1.125c0.30078-0.4375 0.64453-0.76562 1.0312-0.98438 0.39453-0.21875 0.82812-0.32812 1.2969-0.32812 0.51953 0 0.98438 0.13281 1.3906 0.39062 0.40625 0.25 0.71094 0.60547 0.92188 1.0625z"/>
  </symbol>
  <symbol id="v" overflow="visible">
   <path d="m5.375-6.25c0.41406 0 0.72656-0.085938 0.9375-0.26562 0.21875-0.1875 0.32812-0.45703 0.32812-0.8125 0-0.35156-0.10938-0.625-0.32812-0.8125-0.21094-0.1875-0.52344-0.28125-0.9375-0.28125h-1.4531v2.1719zm0.09375 4.4531c0.51953 0 0.91406-0.10938 1.1875-0.32812 0.26953-0.22656 0.40625-0.56641 0.40625-1.0156 0-0.4375-0.13672-0.76562-0.40625-0.98438-0.26172-0.22656-0.65625-0.34375-1.1875-0.34375h-1.5469v2.6719zm2.4375-3.6719c0.5625 0.16797 1 0.47656 1.3125 0.92188 0.3125 0.4375 0.46875 0.98047 0.46875 1.625 0 0.98047-0.33594 1.7148-1 2.2031-0.66797 0.48047-1.6797 0.71875-3.0312 0.71875h-4.375v-10.203h3.9531c1.4141 0 2.4414 0.21484 3.0781 0.64062 0.63281 0.42969 0.95312 1.1172 0.95312 2.0625 0 0.49219-0.11719 0.91406-0.34375 1.2656-0.23047 0.34375-0.57031 0.60156-1.0156 0.76562z"/>
  </symbol>
  <symbol id="h" overflow="visible">
   <path d="m7.1562-7.4219v1.8594c-0.52344-0.21875-1.0273-0.37891-1.5156-0.48438-0.49219-0.11328-0.94922-0.17188-1.375-0.17188-0.46875 0-0.82031 0.0625-1.0469 0.1875-0.21875 0.11719-0.32812 0.29297-0.32812 0.53125 0 0.19922 0.082031 0.35156 0.25 0.45312 0.16406 0.10547 0.47266 0.18359 0.92188 0.23438l0.42188 0.046875c1.2578 0.16797 2.1016 0.43359 2.5312 0.79688 0.4375 0.36719 0.65625 0.9375 0.65625 1.7188 0 0.8125-0.30469 1.4297-0.90625 1.8438-0.60547 0.40625-1.5 0.60938-2.6875 0.60938-0.51172 0-1.0391-0.042969-1.5781-0.125-0.53125-0.082031-1.0859-0.20312-1.6562-0.35938v-1.8594c0.48828 0.24219 0.98828 0.42188 1.5 0.54688 0.50781 0.11719 1.0312 0.17188 1.5625 0.17188 0.47656 0 0.83594-0.066406 1.0781-0.20312 0.23828-0.13281 0.35938-0.33203 0.35938-0.59375 0-0.21875-0.085938-0.37891-0.25-0.48438-0.16797-0.10156-0.49609-0.1875-0.98438-0.25l-0.4375-0.0625c-1.0938-0.13281-1.8594-0.38281-2.2969-0.75-0.4375-0.375-0.65625-0.9375-0.65625-1.6875 0-0.8125 0.27344-1.4102 0.82812-1.7969 0.5625-0.39453 1.4141-0.59375 2.5625-0.59375 0.45703 0 0.92969 0.039062 1.4219 0.10938 0.5 0.0625 1.0391 0.16797 1.625 0.3125z"/>
  </symbol>
  <symbol id="g" overflow="visible">
   <path d="m8.875-4.6562v4.6562h-2.4688v-3.5625c0-0.66406-0.015625-1.125-0.046875-1.375-0.023437-0.25-0.070313-0.42969-0.14062-0.54688-0.09375-0.16406-0.22656-0.28906-0.39062-0.375-0.16797-0.09375-0.35547-0.14062-0.5625-0.14062-0.51172 0-0.91406 0.19922-1.2031 0.59375-0.29297 0.39844-0.4375 0.94531-0.4375 1.6406v3.7656h-2.4531v-7.6562h2.4531v1.125c0.36328-0.44531 0.75391-0.77344 1.1719-0.98438 0.41406-0.21875 0.875-0.32812 1.375-0.32812 0.88281 0 1.5547 0.27344 2.0156 0.8125 0.45703 0.54297 0.6875 1.3359 0.6875 2.375z"/>
  </symbol>
  <symbol id="u" overflow="visible">
   <path d="m1.1719-10.641h2.4531v5.7969l2.8125-2.8125h2.8438l-3.7344 3.5156 4.0312 4.1406h-2.9688l-2.9844-3.1875v3.1875h-2.4531z"/>
  </symbol>
  <symbol id="t" overflow="visible">
   <path d="m6.2188-10.641v1.6094h-1.3594c-0.34375 0-0.58594 0.0625-0.71875 0.1875-0.13672 0.125-0.20312 0.34375-0.20312 0.65625v0.53125h2.0781v1.75h-2.0781v5.9062h-2.4531v-5.9062h-1.2188v-1.75h1.2188v-0.53125c0-0.83203 0.22656-1.4453 0.6875-1.8438 0.46875-0.40625 1.1914-0.60938 2.1719-0.60938z"/>
  </symbol>
  <symbol id="e" overflow="visible">
   <path d="m4.8125-6.0938c-0.54297 0-0.95312 0.19922-1.2344 0.59375-0.28125 0.38672-0.42188 0.94531-0.42188 1.6719 0 0.74219 0.14062 1.3086 0.42188 1.7031 0.28125 0.38672 0.69141 0.57812 1.2344 0.57812 0.53906 0 0.95312-0.19141 1.2344-0.57812 0.28125-0.39453 0.42188-0.96094 0.42188-1.7031 0-0.72656-0.14062-1.2852-0.42188-1.6719-0.28125-0.39453-0.69531-0.59375-1.2344-0.59375zm0-1.75c1.3203 0 2.3516 0.35938 3.0938 1.0781 0.73828 0.71094 1.1094 1.6875 1.1094 2.9375 0 1.2617-0.37109 2.25-1.1094 2.9688-0.74219 0.71094-1.7734 1.0625-3.0938 1.0625-1.3125 0-2.3438-0.35156-3.0938-1.0625-0.74219-0.71875-1.1094-1.707-1.1094-2.9688 0-1.25 0.36719-2.2266 1.1094-2.9375 0.75-0.71875 1.7812-1.0781 3.0938-1.0781z"/>
  </symbol>
  <symbol id="s" overflow="visible">
   <path d="m8.875-4.6562v4.6562h-2.4688v-3.5625c0-0.66406-0.015625-1.125-0.046875-1.375-0.023437-0.25-0.070313-0.42969-0.14062-0.54688-0.09375-0.16406-0.22656-0.28906-0.39062-0.375-0.16797-0.09375-0.35547-0.14062-0.5625-0.14062-0.51172 0-0.91406 0.19922-1.2031 0.59375-0.29297 0.39844-0.4375 0.94531-0.4375 1.6406v3.7656h-2.4531v-10.641h2.4531v4.1094c0.36328-0.44531 0.75391-0.77344 1.1719-0.98438 0.41406-0.21875 0.875-0.32812 1.375-0.32812 0.88281 0 1.5547 0.27344 2.0156 0.8125 0.45703 0.54297 0.6875 1.3359 0.6875 2.375z"/>
  </symbol>
  <symbol id="r" overflow="visible">
   <path d="m1.2812-10.203h2.9375l3.7188 7v-7h2.5v10.203h-2.9375l-3.7188-7v7h-2.5z"/>
  </symbol>
  <symbol id="q" overflow="visible">
   <path d="m1.0938-2.9844v-4.6719h2.4688v0.76562c0 0.41797-0.007812 0.9375-0.015625 1.5625v1.25c0 0.61719 0.015625 1.0586 0.046875 1.3281 0.03125 0.27344 0.082031 0.46875 0.15625 0.59375 0.10156 0.15625 0.23438 0.28125 0.39062 0.375 0.16406 0.085938 0.35156 0.125 0.5625 0.125 0.50781 0 0.91016-0.19141 1.2031-0.57812 0.28906-0.39453 0.4375-0.94141 0.4375-1.6406v-3.7812h2.4531v7.6562h-2.4531v-1.1094c-0.36719 0.44922-0.75781 0.78125-1.1719 1-0.41797 0.20703-0.87109 0.3125-1.3594 0.3125-0.88672 0-1.5625-0.26953-2.0312-0.8125-0.46094-0.53906-0.6875-1.332-0.6875-2.375z"/>
  </symbol>
  <symbol id="p" overflow="visible">
   <path d="m1.2812-10.203h4.375c1.3008 0 2.2969 0.28906 2.9844 0.85938 0.69531 0.57422 1.0469 1.3984 1.0469 2.4688 0 1.0742-0.35156 1.8984-1.0469 2.4688-0.6875 0.57422-1.6836 0.85938-2.9844 0.85938h-1.7344v3.5469h-2.6406zm2.6406 1.9062v2.8438h1.4531c0.50781 0 0.89844-0.11719 1.1719-0.35938 0.28125-0.25 0.42188-0.60156 0.42188-1.0625 0-0.45703-0.14062-0.80469-0.42188-1.0469-0.27344-0.25-0.66406-0.375-1.1719-0.375z"/>
  </symbol>
  <symbol id="o" overflow="visible">
   <path d="m1.1719-7.6562h2.4531v7.5156c0 1.0312-0.25 1.8125-0.75 2.3438-0.49219 0.53906-1.1992 0.8125-2.125 0.8125h-1.2188v-1.5938h0.42188c0.46875 0 0.78516-0.10938 0.95312-0.32812 0.17578-0.21094 0.26562-0.62109 0.26562-1.2344zm0-2.9844h2.4531v2h-2.4531z"/>
  </symbol>
  <symbol id="n" overflow="visible">
   <path d="m7.3594-7.4219v2c-0.33594-0.22656-0.66797-0.39453-1-0.5-0.33594-0.11328-0.68359-0.17188-1.0469-0.17188-0.67969 0-1.2109 0.20312-1.5938 0.60938-0.375 0.39844-0.5625 0.94922-0.5625 1.6562 0 0.71875 0.1875 1.2812 0.5625 1.6875 0.38281 0.39844 0.91406 0.59375 1.5938 0.59375 0.38281 0 0.75-0.054687 1.0938-0.17188 0.34375-0.11328 0.66016-0.28516 0.95312-0.51562v2.0156c-0.38672 0.13672-0.77734 0.23828-1.1719 0.3125-0.38672 0.070312-0.77734 0.10938-1.1719 0.10938-1.3867 0-2.4688-0.35156-3.25-1.0625-0.77344-0.70703-1.1562-1.6953-1.1562-2.9688 0-1.2578 0.38281-2.2422 1.1562-2.9531 0.78125-0.70703 1.8633-1.0625 3.25-1.0625 0.39453 0 0.78516 0.039062 1.1719 0.10938 0.39453 0.074219 0.78516 0.17969 1.1719 0.3125z"/>
  </symbol>
 </defs>
 <g>
  <path d="m468.4 537.52h-71.941l-4.2852-28.664c-10.52 1.4961-21.133 2.4219-31.711 2.7617v0.15234l-9.3672 0.015625c-2.0586 0-4.1094-0.03125-6.1602-0.070312-0.70312-0.007813-1.4688-0.042969-2.2305-0.074219l-1.293-0.050781c-1.5742-0.058594-2.9336-0.10547-4.2891-0.17188-3.0586-0.14844-6.1289-0.32422-9.168-0.57031l-1.2305-0.085938c-7.5195-0.59375-14.836-1.4336-21.836-2.4883l-20.461 29.246h-72.227v-59.508c-64.875-33.645-115.02-89.234-141.56-157.09l-0.64062-1.6562v-71.312h9.3672c29.836 0 57.328-11.777 75.441-32.309 13.809-15.641 27.484-28.203 41.688-38.258l0.003906-70.719h9.3672c29.824 0 57.762 11.195 79.262 31.652 21.367-5.0195 43.527-7.5625 65.961-7.5625 130.02 0 235.8 85.469 235.8 190.52 0 56.898-30.926 110.16-84.949 146.5zm-55.801-18.738h44.012l30.684-63.805 2.1719-1.4297c50.008-32.828 78.688-81.043 78.688-132.28 0-94.719-97.371-171.78-217.06-171.78-22.695 0-45.074 2.7773-66.523 8.2539l-5.293 1.3555-3.7852-3.9453c-16.207-16.906-37.332-27.117-60.254-29.309v61.473l-4.1602 2.7812c-14.34 9.5938-28.148 22.004-42.219 37.941-19.723 22.363-48.539 36.043-80.121 38.316v49.367c25.715 64.566 74.305 117.14 136.98 148.14l5.2148 2.5781v52.344h43.73l21.648-30.941 5.8672 1.0156c8.1758 1.4219 16.922 2.5117 26.004 3.2266l1.2422 0.089844c2.8516 0.22656 5.7109 0.40234 8.5703 0.52734 1.293 0.0625 2.582 0.11328 3.8516 0.15625l1.6562 0.0625c0.58203 0.023437 1.168 0.050781 1.75 0.058593 1.1875 0.023438 2.3594 0.046876 3.5234 0.0625l2.3047-0.007812c15.773 0 31.695-1.3906 47.336-4.1367l9.4648-1.668z"/>
  <path d="m577.52 330.63v-18.734c18.609 0 33.746-15.133 33.746-33.738h18.734c0 28.93-23.543 52.473-52.48 52.473z"/>
  <path d="m212.02 288.34c-17.105 0-31.02-13.918-31.02-31.031h18.734c0 6.7773 5.5078 12.293 12.285 12.293 6.7773 0 12.285-5.5156 12.285-12.293l18.73 0.003906c0 17.109-13.914 31.027-31.016 31.027z"/>
  <path d="m359.19 377.88h-15.754c-8.7852 0-17.066-3.4258-23.316-9.6367-6.2422-6.2617-9.6641-14.547-9.6641-23.379h18.734c0 3.8281 1.4805 7.4219 4.168 10.121 2.6875 2.668 6.2734 4.1562 10.078 4.1562h15.754c3.793 0 7.3711-1.4883 10.09-4.1875 2.6562-2.6562 4.1367-6.2539 4.1367-10.09 0-3.8125-1.4688-7.3789-4.1367-10.027-2.7188-2.7109-6.293-4.1953-10.09-4.1953h-15.754c-8.8125 0-17.102-3.4414-23.34-9.6836-6.2031-6.1562-9.6406-14.434-9.6406-23.289 0-8.8125 3.4258-17.109 9.6406-23.34 6.2422-6.2383 14.531-9.6641 23.34-9.6641h15.754c8.793 0 17.074 3.4258 23.309 9.6484 6.2305 6.2422 9.6523 14.535 9.6523 23.359h-18.734c0-3.8203-1.4766-7.418-4.1641-10.109-2.6836-2.6758-6.2617-4.1602-10.062-4.1602h-15.754c-3.8125 0-7.3906 1.4844-10.09 4.1758-2.6758 2.6758-4.1562 6.2695-4.1562 10.09 0 3.8203 1.4688 7.375 4.1367 10.02 2.7227 2.7344 6.3047 4.2188 10.109 4.2188h15.754c8.8008 0 17.082 3.4336 23.312 9.6602 6.2188 6.1797 9.6484 14.461 9.6484 23.297 0 8.8281-3.4258 17.125-9.6367 23.355-6.2773 6.2383-14.551 9.6602-23.324 9.6602z"/>
  <path d="m341.93 249.81h18.734v24.219h-18.734z"/>
  <path d="m341.93 368.51h18.734v24.199h-18.734z"/>
  <path d="m351.29 112c-24.672 0-44.742-20.082-44.742-44.766 0-24.672 20.07-44.742 44.742-44.742 24.688 0 44.773 20.074 44.773 44.742 0.003906 24.684-20.086 44.766-44.773 44.766zm0-70.777c-14.34 0-26.008 11.668-26.008 26.008 0 14.352 11.668 26.031 26.008 26.031 14.355 0 26.039-11.676 26.039-26.031 0-14.336-11.684-26.008-26.039-26.008z"/>
  <use x="70" y="602" xlink:href="#x"/>
  <use x="80.273438" y="602" xlink:href="#d"/>
  <use x="87.179688" y="602" xlink:href="#a"/>
  <use x="96.675781" y="602" xlink:href="#c"/>
  <use x="106.121094" y="602" xlink:href="#b"/>
  <use x="112.8125" y="602" xlink:href="#a"/>
  <use x="122.308594" y="602" xlink:href="#m"/>
  <use x="137.203125" y="602" xlink:href="#l"/>
  <use x="147.226562" y="602" xlink:href="#k"/>
  <use x="161.226562" y="602" xlink:href="#j"/>
  <use x="175.15625" y="602" xlink:href="#c"/>
  <use x="184.605469" y="602" xlink:href="#w"/>
  <use x="193.632812" y="602" xlink:href="#f"/>
  <use x="198.433594" y="602" xlink:href="#i"/>
  <use x="217.894531" y="602" xlink:href="#v"/>
  <use x="228.566406" y="602" xlink:href="#c"/>
  <use x="238.015625" y="602" xlink:href="#h"/>
  <use x="246.347656" y="602" xlink:href="#f"/>
  <use x="251.144531" y="602" xlink:href="#g"/>
  <use x="261.113281" y="602" xlink:href="#h"/>
  <use x="269.445312" y="602" xlink:href="#u"/>
  <use x="278.757812" y="602" xlink:href="#f"/>
  <use x="70" y="616" xlink:href="#t"/>
  <use x="76.089844" y="616" xlink:href="#d"/>
  <use x="82.996094" y="616" xlink:href="#e"/>
  <use x="92.613281" y="616" xlink:href="#i"/>
  <use x="112.074219" y="616" xlink:href="#b"/>
  <use x="118.769531" y="616" xlink:href="#s"/>
  <use x="128.734375" y="616" xlink:href="#a"/>
  <use x="143.105469" y="616" xlink:href="#r"/>
  <use x="154.820312" y="616" xlink:href="#e"/>
  <use x="164.4375" y="616" xlink:href="#q"/>
  <use x="174.40625" y="616" xlink:href="#g"/>
  <use x="189.246094" y="616" xlink:href="#p"/>
  <use x="199.507812" y="616" xlink:href="#d"/>
  <use x="206.410156" y="616" xlink:href="#e"/>
  <use x="216.03125" y="616" xlink:href="#o"/>
  <use x="220.828125" y="616" xlink:href="#a"/>
  <use x="230.324219" y="616" xlink:href="#n"/>
  <use x="238.621094" y="616" xlink:href="#b"/>
 </g>
</svg>
